<svg version="1.1" id="Layer_1" xmlns="http://www.w3.org/2000/svg" xmlns:xlink="http://www.w3.org/1999/xlink" x="0px" y="0px"
	 width="100%" viewBox="0 0 400 336" enable-background="new 0 0 400 336" xml:space="preserve">
<path fill="#ffffff" opacity="1.000000" stroke="none" 
	d="
M221.299484,278.961060 
	C260.982971,278.997681 300.308716,278.922760 339.633240,279.107635 
	C344.770264,279.131775 346.112061,277.392883 346.101044,272.453461 
	C345.969147,213.298859 346.013306,154.143814 346.093201,94.988968 
	C346.096802,92.319199 344.705750,88.488937 347.773987,87.264053 
	C351.402069,85.815704 355.662476,86.332329 359.587280,87.127586 
	C361.447571,87.504517 361.173737,89.463608 361.195465,90.915718 
	C361.252838,94.747383 361.212891,98.580490 361.213043,102.413025 
	C361.215149,163.900818 361.218170,225.388611 361.218750,286.876404 
	C361.218811,294.203156 361.212677,294.207123 353.757690,294.207642 
	C314.265533,294.210388 274.773254,294.250824 235.281342,294.150482 
	C231.346786,294.140472 228.811615,294.907623 226.386002,298.623413 
	C218.403580,310.851685 200.518188,310.817963 192.199554,298.572235 
	C189.711548,294.909729 187.080261,294.150269 183.152542,294.159454 
	C143.660599,294.251678 104.168343,294.218964 64.676178,294.208893 
	C57.680405,294.207092 57.656525,294.180389 57.655872,287.386810 
	C57.649670,222.566330 57.639790,157.745834 57.708065,92.925430 
	C57.710262,90.837509 56.442177,87.556656 59.666286,87.018723 
	C63.519901,86.375748 67.722748,85.749718 71.397202,87.566612 
	C73.079361,88.398376 72.285919,90.945442 72.287506,92.720009 
	C72.317986,126.879868 72.302101,161.039764 72.300926,195.199646 
	C72.300026,221.194489 72.380730,247.189758 72.234016,273.183746 
	C72.210358,277.376740 73.247993,279.115784 77.793938,279.099121 
	C117.118942,278.954895 156.444672,279.011230 195.770187,278.992035 
	C196.896652,278.991486 198.023026,278.816223 199.994522,278.652008 
	C192.768143,271.680359 184.729324,267.549988 176.254166,264.211823 
	C160.626190,258.056305 144.249313,255.614975 127.598824,254.139297 
	C115.445488,253.062195 103.301849,253.396011 91.156502,253.178619 
	C86.597900,253.097031 84.706284,251.926315 84.716835,246.934601 
	C84.854599,181.781174 84.814369,116.627312 84.758873,51.473618 
	C84.755821,47.888378 85.028976,45.434715 89.746513,45.577267 
	C109.382866,46.170616 129.072189,44.568253 148.669434,46.730968 
	C166.487534,48.697342 183.901093,52.035690 198.910812,62.901821 
	C201.911209,65.073936 204.585251,67.529388 207.104584,70.185806 
	C208.701157,71.869255 210.123932,71.968422 211.730225,70.243095 
	C227.090042,53.745136 247.474243,49.225006 268.575745,46.798168 
	C288.656921,44.488670 308.856873,46.078014 328.998199,45.623772 
	C332.705261,45.540169 333.402100,47.339672 333.382355,50.525028 
	C333.291412,65.188194 333.349243,79.852280 333.349579,94.516029 
	C333.350677,144.339493 333.372559,194.162964 333.329865,243.986389 
	C333.321869,253.318314 334.809082,253.124969 324.070343,253.110596 
	C304.741913,253.084732 285.462128,253.644287 266.428467,257.358887 
	C250.437119,260.479767 235.256409,265.706085 221.954544,275.482056 
	C219.797913,277.067017 219.800720,277.070831 221.299484,278.961060 
M217.007401,211.500000 
	C217.007401,230.199173 217.007401,248.898361 217.007401,268.877136 
	C226.487488,262.288422 235.256516,257.645325 244.841721,254.647064 
	C269.231812,247.017853 294.372559,245.096512 319.711456,244.891083 
	C324.089661,244.855576 325.786896,243.856155 325.774353,239.048248 
	C325.617706,178.930328 325.640564,118.811806 325.752655,58.693680 
	C325.760315,54.577179 324.552460,53.242725 320.376373,53.283581 
	C301.746613,53.465847 283.096954,52.810528 264.551880,55.326050 
	C249.563416,57.359135 235.156921,60.913898 222.813568,70.354332 
	C218.856293,73.380936 216.844864,76.752350 216.873199,82.104019 
	C217.099777,124.901711 217.003143,167.701126 217.007401,211.500000 
M170.881012,58.713737 
	C168.941315,58.247166 167.009232,57.745735 165.060745,57.319359 
	C142.720367,52.430756 120.037292,53.451237 97.413383,53.343899 
	C93.517769,53.325417 93.215897,55.571632 93.217293,58.537113 
	C93.245743,119.031998 93.259125,179.526917 93.202911,240.021744 
	C93.199844,243.330353 94.122078,244.876694 97.720573,244.840088 
	C112.551720,244.689148 127.341667,245.624527 142.014923,247.738541 
	C161.876984,250.600128 181.407272,254.632156 198.243546,266.607025 
	C199.140717,267.245148 200.004242,268.268616 201.476624,267.442657 
	C201.559280,266.872955 201.735901,266.223450 201.736099,265.573853 
	C201.754333,203.412537 201.749542,141.251221 201.798553,79.089935 
	C201.800583,76.505623 200.823074,74.647728 198.921539,73.055084 
	C190.880981,66.320694 181.873932,61.475651 170.881012,58.713737 
z"/>
</svg>